/* XPM */
static char *_25b54dbc0aa40c28d0978444efedff3MrESCJdOUvbaDLfi[] = {
/* columns rows colors chars-per-pixel */
"32 32 5 1 ",
"  c #131119",
". c #2A191F",
"X c #563A2E",
"o c #725E3A",
"O c #908549",
/* pixels */
"   oX.    ....Xo    Xo..   ...XX",
"   XX.    ...XXX    oo..   ...X.",
"   XX.     ..XXo    Oo..   ...X.",
"   oX.     ..XXo    Oo..    ..X.",
"   oX.     ..XXo    Oo..    ....",
"   oX.     ..XX.    oX.. .  ...X",
"   OX.   . ..XoX    XXX...  ..XX",
"   Oo.   . ...oo    XoX...  ..Xo",
"   Oo.   . ...oo    ooX...  ..Xo",
"   Oo.   .....Xo    OoX...   .Xo",
"   Oo.   .....XX    OoX... . ..o",
"   oo.    ....XX    OoX... ....o",
"   OX.    ....Xo    ooo.   ....X",
"   oX. .  ....Xo    Xoo.   ...Xo",
"   XX. .  .....o    ooo.   ...Xo",
"   XX. .  .....o    Ooo.    ..Xo",
"   XX. .   ....o    OoX.    ..Xo",
"   XoX .   ....o    ooX.    ...X",
"   ooX..   ...XX    XXX.     ..X",
"   OoX..   ...Xo    Xo.. .   .XX",
"   OoX.    ....o    Xo.. .   .XX",
"   ooX.    ...Xo    Xo....  ..Xo",
"   Xo..     ..Xo    ooX...  ..Xo",
"   ooX. .   ..Xo    oOX...  ..Xo",
"   OoX...   ..Xo    OOXX.   ...X",
"   OoX..    ...X    OOXX     ..X",
"   oXX..    ...X    OoXX     ..X",
"   XoX.     ...X    ooXX   . ..o",
"   ooX.   . ...X    ooX.   ....o",
"   OoX.   . ..Xo    XXX.   ....o",
"   Oo..   . ..Xo    .XX.   ...Xo",
"   OX..   ....Xo    XXX.   ...XX"
};
