/* XPM */
static char *_8e011ca21434a17fe357fdd29647f081RxqKEKbrvie2IkE[] = {
/* columns rows colors chars-per-pixel */
"32 32 8 1 ",
"  c #231F31",
". c #38395D",
"X c #991111",
"o c #C32808",
"O c #C58918",
"+ c #FFBF47",
"@ c #5F6783",
"# c #ACAEA1",
/* pixels */
"      .O ..      XooO+++Oo  .@@ ",
"      .O ..   XooooOOO++Oo .@.  ",
"       o .   oooo###@..o+O...   ",
"       o .  Xo@@###@. ..++  ..  ",
"       o    o@.#@@.   ..++   .  ",
"...    o   Xo.@@.     ..O+Oo ...",
"..     oX  O .@.      . O+++Oo  ",
"X      oOOOO .@       .OXooO++OO",
"OOX   XO+++O  .        Xo.@@@@.X",
"XOO+++++++OOo         Xo...  .@@",
"@oOOX.@@.XOOo       . o.@     .@",
"@XX  ..@@#@XO      ..X.@       @",
"@XX    .@###Oo    .. X@@   .   @",
".X      .@##@Oo  .. XX.@. ..   @",
"XX       .#@#@Ooo  XX..@@..    .",
"o         #.@#@OooooX. @..    ..",
"o.        #. .@@Xooo.  ..     . ",
"O.       @#   @@.XoX    .       ",
"O..  ..@@#@    .@.o     .      X",
"OX. .    ..     ..o    ..     Xo",
"+o..      .     ..X   .@@@.. XOO",
"+OX..          .. X .@@.   XoOO+",
"++OO .        ... OX ..XoooO++++",
"++++O        ..  oOOOOOo...@@@@@",
"#@+OOX          oO+++Oo@@@...@##",
"###@OoX     XoO+++++OO@@@.    .#",
".###@XoooOOoo ..... oO..@@     .",
".@##@@XoOo  .@##@... o. .@      ",
".##@@@.O+ .@##@.     o    .     ",
"@#@@@.@+O.@#@.     ..o    .     ",
"@@@. .@+o@@  ..   .. oo        .",
"      @O @.     ... oOOOo    .@."
};
